<svg width="32" height="36" viewBox="0 0 32 36" fill="none" xmlns="http://www.w3.org/2000/svg">
<path fill-rule="evenodd" clip-rule="evenodd" d="M16.5518 0.203586L30.8243 8.44379C31.2945 8.71524 31.5841 9.2169 31.5841 9.7598V26.2402C31.5841 26.7831 31.2945 27.2848 30.8243 27.5562L16.5518 35.7964C16.0817 36.0679 15.5024 36.0679 15.0322 35.7964L0.759795 27.5562C0.289632 27.2848 0 26.7831 0 26.2402V9.7598C0 9.2169 0.289632 8.71524 0.759795 8.44379L15.0322 0.203586C15.5024 -0.0678622 16.0817 -0.0678622 16.5518 0.203586Z" fill="#C6FF00"/>
<path fill-rule="evenodd" clip-rule="evenodd" d="M3.47656 10.2837L12.1341 15.2821L12.1187 15.3089L12.1382 15.3089V15.8207C12.1382 17.2526 11.3728 18.5752 10.1314 19.2887L8.94709 19.9693V15.5436L6.6677 14.2276V26.3778L3.47656 24.5419L3.47656 10.2837Z" fill="black"/>
<path fill-rule="evenodd" clip-rule="evenodd" d="M9.50756 8.29736L15.7835 11.9209V19.8854C15.7835 20.1782 15.7835 20.7646 15.7835 20.7646L12.1365 22.8631V25.8472L8.94531 27.6935V22.6028L8.94935 22.6028L8.94531 22.5958L13.2002 20.1393C13.6703 19.8678 13.96 19.3662 13.96 18.8233V13.6238L11.5076 12.2079C10.27 11.4933 9.50756 10.1728 9.50756 8.74377V8.29736Z" fill="black"/>
<path fill-rule="evenodd" clip-rule="evenodd" d="M28.0781 10.2837L19.4205 15.2821L19.436 15.3089L19.4165 15.3089V15.8207C19.4165 17.2526 20.1819 18.5752 21.4233 19.2887L22.6076 19.9693V15.5436L24.887 14.2276V26.3778L28.0781 24.5419L28.0781 10.2837Z" fill="black"/>
<path fill-rule="evenodd" clip-rule="evenodd" d="M22.0471 8.29736L15.7712 11.9209V19.8854C15.7712 20.1782 15.7712 20.7646 15.7712 20.7646L19.4182 22.8631V25.8472L22.6094 27.6935V22.6028L22.6053 22.6028L22.6094 22.5958L18.3545 20.1393C17.8844 19.8678 17.5947 19.3662 17.5947 18.8233V13.6238L20.0471 12.2079C21.2847 11.4933 22.0471 10.1728 22.0471 8.74377V8.29736Z" fill="black"/>
</svg>
