<svg width="153" height="36" viewBox="0 0 153 36" fill="none" xmlns="http://www.w3.org/2000/svg">
<path fill-rule="evenodd" clip-rule="evenodd" d="M16.5518 0.203586L30.8243 8.44379C31.2945 8.71524 31.5841 9.2169 31.5841 9.7598V26.2402C31.5841 26.7831 31.2945 27.2848 30.8243 27.5562L16.5518 35.7964C16.0817 36.0679 15.5024 36.0679 15.0322 35.7964L0.759795 27.5562C0.289632 27.2848 0 26.7831 0 26.2402V9.7598C0 9.2169 0.289632 8.71524 0.759795 8.44379L15.0322 0.203586C15.5024 -0.0678622 16.0817 -0.0678622 16.5518 0.203586Z" fill="#C6FF00"/>
<path fill-rule="evenodd" clip-rule="evenodd" d="M3.47656 10.2837L12.1341 15.2821L12.1187 15.3089L12.1382 15.3089V15.8207C12.1382 17.2526 11.3728 18.5752 10.1314 19.2887L8.94709 19.9693V15.5436L6.6677 14.2276V26.3778L3.47656 24.5419L3.47656 10.2837Z" fill="black"/>
<path fill-rule="evenodd" clip-rule="evenodd" d="M9.50951 8.29736L15.7854 11.9209V19.8854C15.7854 20.1782 15.7854 20.7646 15.7854 20.7646L12.1384 22.8631V25.8472L8.94727 27.6935V22.6028L8.95131 22.6028L8.94727 22.5958L13.2021 20.1393C13.6723 19.8678 13.9619 19.3662 13.9619 18.8233V13.6238L11.5095 12.2079C10.2719 11.4933 9.50951 10.1728 9.50951 8.74377V8.29736Z" fill="black"/>
<path fill-rule="evenodd" clip-rule="evenodd" d="M28.0781 10.2837L19.4205 15.2821L19.436 15.3089L19.4165 15.3089V15.8207C19.4165 17.2526 20.1819 18.5752 21.4233 19.2887L22.6076 19.9693V15.5436L24.887 14.2276V26.3778L28.0781 24.5419L28.0781 10.2837Z" fill="black"/>
<path fill-rule="evenodd" clip-rule="evenodd" d="M22.0452 8.29736L15.7693 11.9209V19.8854C15.7693 20.1782 15.7693 20.7646 15.7693 20.7646L19.4163 22.8631V25.8472L22.6074 27.6935V22.6028L22.6034 22.6028L22.6074 22.5958L18.3526 20.1393C17.8824 19.8678 17.5928 19.3662 17.5928 18.8233V13.6238L20.0452 12.2079C21.2828 11.4933 22.0452 10.1728 22.0452 8.74377V8.29736Z" fill="black"/>
<path d="M38.0391 29.758V13.3H41.5491V15.328C42.8837 13.9066 44.6691 13.1613 46.9051 13.092C47.1304 13.092 47.3557 13.092 47.5811 13.092C50.1291 13.092 52.1831 13.6553 53.7431 14.782C55.3031 15.8913 56.0831 17.356 56.0831 19.176C56.0831 21.048 55.3117 22.53 53.7691 23.622C52.2264 24.6966 50.1811 25.234 47.6331 25.234C47.3904 25.234 47.1477 25.2253 46.9051 25.208C44.7037 25.1386 42.9444 24.4107 41.6271 23.024V29.758H38.0391ZM41.5751 19.15C41.5751 19.9473 41.8784 20.6146 42.4851 21.152C43.0917 21.6893 43.8024 22.0706 44.6171 22.296C45.4491 22.504 46.3417 22.608 47.2951 22.608C48.6817 22.608 49.8777 22.3046 50.8831 21.698C51.9057 21.0913 52.4171 20.2507 52.4171 19.176C52.4171 18.1013 51.9144 17.252 50.9091 16.628C49.9037 16.004 48.6991 15.692 47.2951 15.692C46.5844 15.692 45.9171 15.744 45.2931 15.848C44.6691 15.952 44.0624 16.1253 43.4731 16.368C42.9011 16.6106 42.4417 16.9746 42.0951 17.46C41.7484 17.928 41.5751 18.4913 41.5751 19.15Z" fill="white"/>
<path d="M57.169 19.15C57.169 17.434 57.9836 15.9866 59.613 14.808C61.2596 13.6293 63.4696 13.04 66.243 13.04C69.0163 13.04 71.2176 13.6293 72.847 14.808C74.4763 15.9866 75.291 17.434 75.291 19.15C75.291 20.8833 74.4763 22.3307 72.847 23.492C71.2176 24.6707 69.0163 25.26 66.243 25.26C63.4696 25.26 61.2596 24.6707 59.613 23.492C57.9836 22.3133 57.169 20.866 57.169 19.15ZM62.265 21.594C63.2356 22.3046 64.5616 22.66 66.243 22.66C67.8896 22.66 69.1983 22.3133 70.169 21.62C71.157 20.9093 71.651 20.086 71.651 19.15C71.651 18.1446 71.1656 17.3126 70.195 16.654C69.2416 15.978 67.9243 15.64 66.243 15.64C64.527 15.64 63.1923 15.978 62.239 16.654C61.2856 17.3126 60.809 18.1446 60.809 19.15C60.809 20.086 61.2943 20.9006 62.265 21.594Z" fill="white"/>
<path d="M76.6552 8.28198H80.1392V21.308C80.1392 21.6546 80.1998 21.8973 80.3212 22.036C80.4598 22.1573 80.7025 22.218 81.0492 22.218H83.1552V25H81.0492C79.3332 25 78.1718 24.766 77.5652 24.298C76.9585 23.8126 76.6552 22.816 76.6552 21.308V8.28198Z" fill="white"/>
<path d="M86.0393 13.3L90.9273 22.296L95.7113 13.3H99.5593L92.3573 26.04C92.2533 26.2306 92.0973 26.508 91.8893 26.872C91.6987 27.236 91.56 27.4786 91.4733 27.6C91.404 27.7386 91.2827 27.938 91.1093 28.198C90.9533 28.458 90.8233 28.6313 90.7193 28.718C90.6327 28.8046 90.494 28.926 90.3033 29.082C90.13 29.2553 89.9567 29.3593 89.7833 29.394C89.6273 29.446 89.428 29.5066 89.1853 29.576C88.9427 29.6626 88.6827 29.7146 88.4053 29.732C88.128 29.7493 87.8073 29.758 87.4433 29.758H82.9193V26.976H87.4433C87.8767 26.976 88.1713 26.9153 88.3273 26.794C88.5007 26.69 88.7 26.4387 88.9253 26.04L89.3413 25.286L82.2173 13.3H86.0393Z" fill="white"/>
<path d="M101.177 14.678C102.668 13.6206 104.679 13.092 107.209 13.092C107.435 13.092 107.66 13.092 107.885 13.092C110.121 13.1613 111.907 13.898 113.241 15.302V13.3H116.751V26.04C116.751 27.548 116.431 28.5447 115.789 29.03C115.165 29.5153 113.987 29.758 112.253 29.758H99.9034V27.054H112.253C112.6 27.054 112.834 26.9846 112.955 26.846C113.094 26.7073 113.163 26.456 113.163 26.092V23.05C111.863 24.4193 110.104 25.1386 107.885 25.208C107.643 25.2253 107.4 25.234 107.157 25.234C104.627 25.234 102.59 24.6966 101.047 23.622C99.5048 22.53 98.7334 21.048 98.7334 19.176C98.7334 17.356 99.5481 15.8566 101.177 14.678ZM103.907 21.698C104.93 22.3046 106.135 22.608 107.521 22.608C108.475 22.608 109.359 22.504 110.173 22.296C111.005 22.0706 111.725 21.6893 112.331 21.152C112.938 20.6146 113.241 19.9473 113.241 19.15C113.241 18.4913 113.068 17.928 112.721 17.46C112.375 16.9746 111.907 16.6106 111.317 16.368C110.745 16.1253 110.147 15.952 109.523 15.848C108.899 15.744 108.232 15.692 107.521 15.692C106.117 15.692 104.904 16.004 103.881 16.628C102.876 17.252 102.373 18.1013 102.373 19.176C102.373 20.2507 102.885 21.0913 103.907 21.698Z" fill="white"/>
<path d="M118.106 19.176C118.106 17.3733 118.843 15.9 120.316 14.756C121.807 13.612 123.818 13.04 126.348 13.04C127.995 13.04 129.46 13.2913 130.742 13.794C132.025 14.2793 133.004 15.0333 133.68 16.056C134.374 17.0613 134.72 18.1793 134.72 19.41C134.72 19.6526 134.703 19.9127 134.668 20.19H121.59C121.816 20.9353 122.353 21.5593 123.202 22.062C124.069 22.5473 125.144 22.79 126.426 22.79C127.172 22.79 127.83 22.7466 128.402 22.66C128.992 22.556 129.434 22.4433 129.728 22.322C130.04 22.1833 130.283 22.0533 130.456 21.932C130.647 21.7933 130.768 21.672 130.82 21.568L130.898 21.438H134.486C134.452 21.542 134.4 21.6806 134.33 21.854C134.261 22.0273 134.044 22.3306 133.68 22.764C133.316 23.1973 132.866 23.5873 132.328 23.934C131.808 24.2633 131.02 24.5666 129.962 24.844C128.922 25.1213 127.735 25.26 126.4 25.26C123.939 25.26 121.937 24.7053 120.394 23.596C118.869 22.4867 118.106 21.0133 118.106 19.176ZM131.288 17.928C131.254 17.2346 130.786 16.6626 129.884 16.212C128.983 15.744 127.813 15.51 126.374 15.51C125.057 15.51 123.982 15.744 123.15 16.212C122.336 16.68 121.824 17.252 121.616 17.928H131.288Z" fill="white"/>
<path d="M139.372 13.3V15.718C140.585 13.95 142.535 13.0573 145.222 13.04C145.274 13.04 145.317 13.04 145.352 13.04C148.021 13.04 149.962 13.5686 151.176 14.626C152.389 15.6833 152.996 17.1306 152.996 18.968V25H149.408V18.968C149.408 16.6627 147.891 15.51 144.858 15.51C143.124 15.51 141.798 15.9086 140.88 16.706C139.978 17.5033 139.528 18.4913 139.528 19.67V25H135.94V13.3H139.372Z" fill="white"/>
</svg>
