<svg width="720" height="680" viewBox="0 0 720 680" fill="none" xmlns="http://www.w3.org/2000/svg">
<g opacity="0.2">
<path d="M80 0H81V680H80V0Z" fill="white"/>
<path d="M400 0H401V680H400V0Z" fill="white"/>
<path d="M160 0H161V680H160V0Z" fill="white"/>
<path d="M480 0H481V680H480V0Z" fill="white"/>
<path d="M240 0H241V680H240V0Z" fill="white"/>
<path d="M320 0H321V680H320V0Z" fill="white"/>
<path d="M560 0H561V680H560V0Z" fill="white"/>
<path d="M640 0H641V680H640V0Z" fill="white"/>
<path d="M1 82V81H720V82H1Z" fill="white"/>
<path d="M1 402V401H720V402H1Z" fill="white"/>
<path d="M1 162V161H720V162H1Z" fill="white"/>
<path d="M1 482V481H720V482H1Z" fill="white"/>
<path d="M1 242V241H720V242H1Z" fill="white"/>
<path d="M1 322V321H720V322H1Z" fill="white"/>
<path d="M1 562V561H720V562H1Z" fill="white"/>
<path d="M0 644V643H719V644H0Z" fill="white"/>
</g>
</svg>
