<svg width="144" height="36" viewBox="0 0 144 36" fill="none" xmlns="http://www.w3.org/2000/svg">
<path fill-rule="evenodd" clip-rule="evenodd" d="M16.5518 0.203586L30.8243 8.44379C31.2945 8.71524 31.5841 9.2169 31.5841 9.7598V26.2402C31.5841 26.7831 31.2945 27.2848 30.8243 27.5562L16.5518 35.7964C16.0817 36.0679 15.5024 36.0679 15.0322 35.7964L0.759795 27.5562C0.289632 27.2848 0 26.7831 0 26.2402V9.7598C0 9.2169 0.289632 8.71524 0.759795 8.44379L15.0322 0.203586C15.5024 -0.0678622 16.0817 -0.0678622 16.5518 0.203586Z" fill="#C6FF00"/>
<path fill-rule="evenodd" clip-rule="evenodd" d="M3.47656 10.2834L12.1341 15.2819L12.1187 15.3087L12.1382 15.3087V15.8204C12.1382 17.2523 11.3728 18.575 10.1314 19.2885L8.94709 19.9691V15.5434L6.6677 14.2274V26.3775L3.47656 24.5416L3.47656 10.2834Z" fill="black"/>
<path fill-rule="evenodd" clip-rule="evenodd" d="M9.50756 8.29736L15.7835 11.9209V19.8854C15.7835 20.1782 15.7835 20.7646 15.7835 20.7646L12.1365 22.8631V25.8472L8.94531 27.6935V22.6028L8.94935 22.6028L8.94531 22.5958L13.2002 20.1393C13.6703 19.8678 13.96 19.3662 13.96 18.8233V13.6238L11.5076 12.2079C10.27 11.4933 9.50756 10.1728 9.50756 8.74377V8.29736Z" fill="black"/>
<path fill-rule="evenodd" clip-rule="evenodd" d="M28.0781 10.2837L19.4205 15.2821L19.436 15.3089L19.4165 15.3089V15.8207C19.4165 17.2526 20.1819 18.5752 21.4233 19.2887L22.6076 19.9693V15.5436L24.887 14.2276V26.3778L28.0781 24.5419L28.0781 10.2837Z" fill="black"/>
<path fill-rule="evenodd" clip-rule="evenodd" d="M22.0471 8.29736L15.7712 11.9209V19.8854C15.7712 20.1782 15.7712 20.7646 15.7712 20.7646L19.4182 22.8631V25.8472L22.6094 27.6935V22.6028L22.6053 22.6028L22.6094 22.5958L18.3545 20.1393C17.8844 19.8678 17.5947 19.3662 17.5947 18.8233V13.6238L20.0471 12.2079C21.2847 11.4933 22.0471 10.1728 22.0471 8.74377V8.29736Z" fill="black"/>
<path d="M36.4628 11.6499V13.4899C37.5515 12.1406 39.0848 11.4506 41.0628 11.4199C41.0935 11.4199 41.1242 11.4199 41.1548 11.4199C43.1022 11.4199 44.6508 11.9259 45.8008 12.9379C46.9508 13.9346 47.5258 15.2456 47.5258 16.8709C47.5258 18.5116 46.9432 19.8149 45.7778 20.7809C44.6278 21.7469 43.1328 22.2299 41.2928 22.2299C41.1855 22.2299 41.0705 22.2299 40.9478 22.2299C39.0772 22.1839 37.5975 21.4939 36.5088 20.1599V26.2089H34.7148V11.6499H36.4628ZM37.7048 19.6769C38.5328 20.4283 39.6215 20.8039 40.9708 20.8039C42.2742 20.8039 43.3782 20.4359 44.2828 19.6999C45.2028 18.9639 45.6628 18.0209 45.6628 16.8709C45.6628 15.6443 45.2105 14.6706 44.3058 13.9499C43.4165 13.2139 42.3048 12.8459 40.9708 12.8459C39.6062 12.8459 38.5098 13.2139 37.6818 13.9499C36.8692 14.6859 36.4628 15.6443 36.4628 16.8249C36.4628 17.9749 36.8768 18.9256 37.7048 19.6769Z" fill="#F1F2F4"/>
<path d="M48.7833 16.8249C48.7833 15.2609 49.3813 13.9729 50.5773 12.9609C51.7886 11.9336 53.3833 11.4199 55.3613 11.4199C57.324 11.4199 58.9033 11.9336 60.0993 12.9609C61.3106 13.9729 61.9163 15.2609 61.9163 16.8249C61.9163 18.4196 61.3183 19.7153 60.1223 20.7119C58.9263 21.7239 57.3393 22.2299 55.3613 22.2299C53.3833 22.2299 51.7886 21.7239 50.5773 20.7119C49.3813 19.6999 48.7833 18.4043 48.7833 16.8249ZM51.9343 19.6999C52.793 20.4513 53.9353 20.8269 55.3613 20.8269C56.7566 20.8269 57.8836 20.4513 58.7423 19.6999C59.6163 18.9486 60.0533 17.9903 60.0533 16.8249C60.0533 15.6749 59.6163 14.7243 58.7423 13.9729C57.8836 13.2063 56.7566 12.8229 55.3613 12.8229C53.9506 12.8229 52.8083 13.1986 51.9343 13.9499C51.0756 14.7013 50.6463 15.6596 50.6463 16.8249C50.6463 18.0056 51.0756 18.9639 51.9343 19.6999Z" fill="#F1F2F4"/>
<path d="M63.6007 7.21094H65.3947V19.7689C65.3947 20.0296 65.4407 20.2136 65.5327 20.3209C65.6247 20.4129 65.7934 20.4589 66.0387 20.4589H67.5797V21.9999H66.0387C65.134 21.9999 64.4977 21.8466 64.1297 21.5399C63.777 21.2179 63.6007 20.6276 63.6007 19.7689V7.21094Z" fill="#F1F2F4"/>
<path d="M69.5803 11.6499L73.6513 20.2749L77.7453 11.6499H79.7233L73.7433 23.9549C73.314 24.8289 72.9843 25.3809 72.7543 25.6109C72.3403 26.0096 71.704 26.2089 70.8453 26.2089H68.0163V24.6679H70.8453C71.1673 24.6679 71.382 24.6219 71.4893 24.5299C71.5967 24.4533 71.7347 24.2616 71.9033 23.9549L72.8233 22.0229L67.6253 11.6499H69.5803Z" fill="#F1F2F4"/>
<path d="M79.712 16.8709C79.712 15.2609 80.287 13.9499 81.437 12.9379C82.6023 11.9259 84.151 11.4199 86.083 11.4199C86.1137 11.4199 86.1443 11.4199 86.175 11.4199C88.153 11.4506 89.694 12.1483 90.798 13.5129V11.6499H92.546V23.9779C92.546 24.8366 92.362 25.4193 91.994 25.7259C91.626 26.0479 90.9897 26.2089 90.085 26.2089H80.632V24.6679H90.085C90.3303 24.6679 90.499 24.6219 90.591 24.5299C90.683 24.4379 90.729 24.2616 90.729 24.0009V20.1599C89.6403 21.4939 88.1683 22.1839 86.313 22.2299C86.1903 22.2299 86.0753 22.2299 85.968 22.2299C84.1127 22.2299 82.6023 21.7469 81.437 20.7809C80.287 19.8149 79.712 18.5116 79.712 16.8709ZM81.575 16.8709C81.575 18.0209 82.035 18.9639 82.955 19.6999C83.875 20.4359 84.9867 20.8039 86.29 20.8039C87.6393 20.8039 88.728 20.4283 89.556 19.6769C90.384 18.9256 90.798 17.9749 90.798 16.8249C90.798 15.6443 90.384 14.6859 89.556 13.9499C88.728 13.2139 87.6393 12.8459 86.29 12.8459C84.956 12.8459 83.8367 13.2139 82.932 13.9499C82.0273 14.6706 81.575 15.6443 81.575 16.8709Z" fill="#F1F2F4"/>
<path d="M94.4304 19.3549C94.4304 18.9256 94.5607 18.5269 94.8214 18.1589C95.0821 17.7909 95.3887 17.4843 95.7414 17.2389C96.1094 16.9936 96.5847 16.7713 97.1674 16.5719C97.7501 16.3726 98.2791 16.2193 98.7544 16.1119C99.2451 15.9893 99.8201 15.8819 100.479 15.7899C101.154 15.6979 101.668 15.6366 102.02 15.6059C102.388 15.5753 102.833 15.5446 103.354 15.5139C103.891 15.4833 104.167 15.4679 104.182 15.4679C104.167 13.6893 102.963 12.7999 100.571 12.7999C99.9427 12.7999 99.3831 12.8613 98.8924 12.9839C98.4171 13.1066 98.0644 13.2599 97.8344 13.4439C97.6197 13.6126 97.4434 13.7889 97.3054 13.9729C97.1674 14.1416 97.0831 14.2873 97.0524 14.4099L97.0294 14.5939H95.0974C95.1281 14.4406 95.1587 14.2949 95.1894 14.1569C95.2354 14.0189 95.3734 13.7659 95.6034 13.3979C95.8487 13.0146 96.1477 12.7003 96.5004 12.4549C96.8531 12.1943 97.3821 11.9566 98.0874 11.7419C98.8081 11.5273 99.6437 11.4199 100.594 11.4199C102.342 11.4199 103.676 11.7726 104.596 12.4779C105.516 13.1679 105.976 14.1646 105.976 15.4679V19.7919C105.976 20.0526 106.015 20.2289 106.091 20.3209C106.183 20.4129 106.352 20.4589 106.597 20.4589H107.517V21.9999H106.574C105.716 21.9999 105.11 21.8619 104.757 21.5859C104.405 21.2946 104.213 20.7656 104.182 19.9989C103.063 21.4863 101.254 22.2299 98.7544 22.2299C97.3284 22.2299 96.2474 21.9693 95.5114 21.4479C94.7907 20.9266 94.4304 20.2443 94.4304 19.4009C94.4304 19.3856 94.4304 19.3703 94.4304 19.3549ZM97.0754 20.4359C97.5661 20.6966 98.1794 20.8269 98.9154 20.8269C98.9614 20.8269 99.0074 20.8269 99.0534 20.8269C99.7894 20.8269 100.541 20.7196 101.307 20.5049C102.074 20.2749 102.741 19.9223 103.308 19.4469C103.876 18.9563 104.167 18.4043 104.182 17.7909V16.7789C99.0151 17.0396 96.4084 17.9059 96.3624 19.3779C96.3624 19.3933 96.3624 19.4086 96.3624 19.4239C96.3624 19.8533 96.6001 20.1906 97.0754 20.4359Z" fill="#F1F2F4"/>
<path d="M110.763 11.6499V13.7889C111.069 13.0836 111.583 12.5163 112.304 12.0869C113.024 11.6576 113.898 11.4353 114.926 11.4199C114.972 11.4199 115.018 11.4199 115.064 11.4199C117.425 11.4199 118.974 12.2479 119.71 13.9039C120.047 13.1986 120.622 12.6159 121.435 12.1559C122.247 11.6806 123.183 11.4353 124.241 11.4199C124.302 11.4199 124.363 11.4199 124.425 11.4199C126.004 11.4199 127.238 11.8339 128.128 12.6619C129.032 13.4746 129.485 14.7166 129.485 16.3879V21.9999H127.668V16.3879C127.668 14.0573 126.495 12.8919 124.149 12.8919C121.496 12.8919 120.17 14.2336 120.17 16.9169V21.9999H118.353V16.3879C118.353 14.0573 117.172 12.8919 114.811 12.8919C112.158 12.8919 110.832 14.2489 110.832 16.9629V21.9999H109.015V11.6499H110.763Z" fill="#F1F2F4"/>
<path d="M130.923 16.8479C130.923 15.2379 131.467 13.9346 132.556 12.9379C133.645 11.9259 135.17 11.4199 137.133 11.4199C138.59 11.4199 139.793 11.7189 140.744 12.3169C141.71 12.9149 142.346 13.6049 142.653 14.3869C142.975 15.1689 143.136 15.9433 143.136 16.7099C143.136 16.9399 143.121 17.1776 143.09 17.4229H132.763C132.84 18.4349 133.254 19.2553 134.005 19.8839C134.756 20.5126 135.807 20.8269 137.156 20.8269C137.769 20.8269 138.321 20.7579 138.812 20.6199C139.318 20.4819 139.701 20.3133 139.962 20.1139C140.223 19.9146 140.445 19.7153 140.629 19.5159C140.813 19.3013 140.936 19.1249 140.997 18.9869L141.066 18.7799H142.929C142.914 18.8719 142.875 18.9946 142.814 19.1479C142.768 19.3013 142.615 19.5773 142.354 19.9759C142.093 20.3746 141.771 20.7273 141.388 21.0339C141.005 21.3406 140.437 21.6166 139.686 21.8619C138.935 22.1073 138.084 22.2299 137.133 22.2299C135.232 22.2299 133.721 21.7469 132.602 20.7809C131.483 19.7996 130.923 18.4886 130.923 16.8479ZM141.319 16.0199C141.319 15.1306 140.943 14.3793 140.192 13.7659C139.456 13.1373 138.444 12.8229 137.156 12.8229C135.807 12.8229 134.756 13.1373 134.005 13.7659C133.269 14.3946 132.855 15.1459 132.763 16.0199H141.319Z" fill="#F1F2F4"/>
</svg>
