<svg width="160" height="160" viewBox="0 0 160 160" fill="none" xmlns="http://www.w3.org/2000/svg">
<rect width="160" height="160" rx="24" fill="url(#paint0_linear)"/>
<rect x="0.5" y="0.5" width="159" height="159" rx="23.5" stroke="url(#paint1_linear)" stroke-opacity="0.24"/>
<g filter="url(#filter0_i)">
<path d="M64 80C64 91.0457 55.0457 100 44 100C32.9543 100 24 91.0457 24 80C24 68.9543 32.9543 60 44 60C55.0457 60 64 68.9543 64 80Z" fill="#02D290"/>
<path d="M64 80C64 91.0457 55.0457 100 44 100C32.9543 100 24 91.0457 24 80C24 68.9543 32.9543 60 44 60C55.0457 60 64 68.9543 64 80Z" fill="url(#paint2_linear)" fill-opacity="0.72"/>
<path d="M64 80C64 91.0457 55.0457 100 44 100C32.9543 100 24 91.0457 24 80C24 68.9543 32.9543 60 44 60C55.0457 60 64 68.9543 64 80Z" fill="url(#paint3_linear)"/>
</g>
<path d="M63.5 80C63.5 90.7696 54.7696 99.5 44 99.5C33.2304 99.5 24.5 90.7696 24.5 80C24.5 69.2304 33.2304 60.5 44 60.5C54.7696 60.5 63.5 69.2304 63.5 80Z" stroke="black"/>
<path d="M34 70H54V90H34V70Z" stroke="black" stroke-width="2"/>
<g filter="url(#filter1_i)">
<path d="M100 44C100 55.0457 91.0457 64 80 64C68.9543 64 60 55.0457 60 44C60 32.9543 68.9543 24 80 24C91.0457 24 100 32.9543 100 44Z" fill="#02D290"/>
<path d="M100 44C100 55.0457 91.0457 64 80 64C68.9543 64 60 55.0457 60 44C60 32.9543 68.9543 24 80 24C91.0457 24 100 32.9543 100 44Z" fill="url(#paint4_linear)" fill-opacity="0.72"/>
<path d="M100 44C100 55.0457 91.0457 64 80 64C68.9543 64 60 55.0457 60 44C60 32.9543 68.9543 24 80 24C91.0457 24 100 32.9543 100 44Z" fill="url(#paint5_linear)"/>
</g>
<path d="M99.5 44C99.5 54.7696 90.7696 63.5 80 63.5C69.2304 63.5 60.5 54.7696 60.5 44C60.5 33.2304 69.2304 24.5 80 24.5C90.7696 24.5 99.5 33.2304 99.5 44Z" stroke="black"/>
<path d="M67.8766 52L80.0009 31L92.1253 52H67.8766Z" stroke="black" stroke-width="2"/>
<g filter="url(#filter2_i)">
<path d="M136 80C136 91.0457 127.046 100 116 100C104.954 100 96 91.0457 96 80C96 68.9543 104.954 60 116 60C127.046 60 136 68.9543 136 80Z" fill="#02D290"/>
<path d="M136 80C136 91.0457 127.046 100 116 100C104.954 100 96 91.0457 96 80C96 68.9543 104.954 60 116 60C127.046 60 136 68.9543 136 80Z" fill="url(#paint6_linear)" fill-opacity="0.72"/>
<path d="M136 80C136 91.0457 127.046 100 116 100C104.954 100 96 91.0457 96 80C96 68.9543 104.954 60 116 60C127.046 60 136 68.9543 136 80Z" fill="url(#paint7_linear)"/>
</g>
<path d="M135.5 80C135.5 90.7696 126.77 99.5 116 99.5C105.23 99.5 96.5 90.7696 96.5 80C96.5 69.2304 105.23 60.5 116 60.5C126.77 60.5 135.5 69.2304 135.5 80Z" stroke="black"/>
<path d="M127 80C127 86.0751 122.075 91 116 91C109.925 91 105 86.0751 105 80C105 73.9249 109.925 69 116 69C122.075 69 127 73.9249 127 80Z" stroke="black" stroke-width="2"/>
<g filter="url(#filter3_i)">
<path d="M100 116C100 127.046 91.0457 136 80 136C68.9543 136 60 127.046 60 116C60 104.954 68.9543 96 80 96C91.0457 96 100 104.954 100 116Z" fill="#02D290"/>
<path d="M100 116C100 127.046 91.0457 136 80 136C68.9543 136 60 127.046 60 116C60 104.954 68.9543 96 80 96C91.0457 96 100 104.954 100 116Z" fill="url(#paint8_linear)" fill-opacity="0.72"/>
<path d="M100 116C100 127.046 91.0457 136 80 136C68.9543 136 60 127.046 60 116C60 104.954 68.9543 96 80 96C91.0457 96 100 104.954 100 116Z" fill="url(#paint9_linear)"/>
</g>
<path d="M99.5 116C99.5 126.77 90.7696 135.5 80 135.5C69.2304 135.5 60.5 126.77 60.5 116C60.5 105.23 69.2304 96.5 80 96.5C90.7696 96.5 99.5 105.23 99.5 116Z" stroke="black"/>
<path d="M71.5156 107.514L80.0009 115.999M80.0009 115.999L88.4862 124.485M80.0009 115.999L71.5156 124.485M80.0009 115.999L88.4862 107.514" stroke="black" stroke-width="2"/>
<defs>
<filter id="filter0_i" x="24" y="48" width="40" height="52" filterUnits="userSpaceOnUse" color-interpolation-filters="sRGB">
<feFlood flood-opacity="0" result="BackgroundImageFix"/>
<feBlend mode="normal" in="SourceGraphic" in2="BackgroundImageFix" result="shape"/>
<feColorMatrix in="SourceAlpha" type="matrix" values="0 0 0 0 0 0 0 0 0 0 0 0 0 0 0 0 0 0 127 0" result="hardAlpha"/>
<feMorphology radius="8" operator="dilate" in="SourceAlpha" result="effect1_innerShadow"/>
<feOffset dy="-16"/>
<feGaussianBlur stdDeviation="10"/>
<feComposite in2="hardAlpha" operator="arithmetic" k2="-1" k3="1"/>
<feColorMatrix type="matrix" values="0 0 0 0 0.576753 0 0 0 0 0.995833 0 0 0 0 0.862856 0 0 0 1 0"/>
<feBlend mode="normal" in2="shape" result="effect1_innerShadow"/>
</filter>
<filter id="filter1_i" x="60" y="12" width="40" height="52" filterUnits="userSpaceOnUse" color-interpolation-filters="sRGB">
<feFlood flood-opacity="0" result="BackgroundImageFix"/>
<feBlend mode="normal" in="SourceGraphic" in2="BackgroundImageFix" result="shape"/>
<feColorMatrix in="SourceAlpha" type="matrix" values="0 0 0 0 0 0 0 0 0 0 0 0 0 0 0 0 0 0 127 0" result="hardAlpha"/>
<feMorphology radius="8" operator="dilate" in="SourceAlpha" result="effect1_innerShadow"/>
<feOffset dy="-16"/>
<feGaussianBlur stdDeviation="10"/>
<feComposite in2="hardAlpha" operator="arithmetic" k2="-1" k3="1"/>
<feColorMatrix type="matrix" values="0 0 0 0 0.576753 0 0 0 0 0.995833 0 0 0 0 0.862856 0 0 0 1 0"/>
<feBlend mode="normal" in2="shape" result="effect1_innerShadow"/>
</filter>
<filter id="filter2_i" x="96" y="48" width="40" height="52" filterUnits="userSpaceOnUse" color-interpolation-filters="sRGB">
<feFlood flood-opacity="0" result="BackgroundImageFix"/>
<feBlend mode="normal" in="SourceGraphic" in2="BackgroundImageFix" result="shape"/>
<feColorMatrix in="SourceAlpha" type="matrix" values="0 0 0 0 0 0 0 0 0 0 0 0 0 0 0 0 0 0 127 0" result="hardAlpha"/>
<feMorphology radius="8" operator="dilate" in="SourceAlpha" result="effect1_innerShadow"/>
<feOffset dy="-16"/>
<feGaussianBlur stdDeviation="10"/>
<feComposite in2="hardAlpha" operator="arithmetic" k2="-1" k3="1"/>
<feColorMatrix type="matrix" values="0 0 0 0 0.576753 0 0 0 0 0.995833 0 0 0 0 0.862856 0 0 0 1 0"/>
<feBlend mode="normal" in2="shape" result="effect1_innerShadow"/>
</filter>
<filter id="filter3_i" x="60" y="84" width="40" height="52" filterUnits="userSpaceOnUse" color-interpolation-filters="sRGB">
<feFlood flood-opacity="0" result="BackgroundImageFix"/>
<feBlend mode="normal" in="SourceGraphic" in2="BackgroundImageFix" result="shape"/>
<feColorMatrix in="SourceAlpha" type="matrix" values="0 0 0 0 0 0 0 0 0 0 0 0 0 0 0 0 0 0 127 0" result="hardAlpha"/>
<feMorphology radius="8" operator="dilate" in="SourceAlpha" result="effect1_innerShadow"/>
<feOffset dy="-16"/>
<feGaussianBlur stdDeviation="10"/>
<feComposite in2="hardAlpha" operator="arithmetic" k2="-1" k3="1"/>
<feColorMatrix type="matrix" values="0 0 0 0 0.576753 0 0 0 0 0.995833 0 0 0 0 0.862856 0 0 0 1 0"/>
<feBlend mode="normal" in2="shape" result="effect1_innerShadow"/>
</filter>
<linearGradient id="paint0_linear" x1="80" y1="0" x2="80" y2="160" gradientUnits="userSpaceOnUse">
<stop stop-color="#2D2D2D"/>
<stop offset="1" stop-color="#050505"/>
</linearGradient>
<linearGradient id="paint1_linear" x1="80" y1="0" x2="80" y2="160" gradientUnits="userSpaceOnUse">
<stop stop-color="white"/>
<stop offset="1" stop-color="white" stop-opacity="0.4"/>
</linearGradient>
<linearGradient id="paint2_linear" x1="44.6764" y1="61.2401" x2="42.2504" y2="85.4248" gradientUnits="userSpaceOnUse">
<stop offset="0.0174295" stop-color="#94FFDD"/>
<stop offset="1" stop-color="#00C788" stop-opacity="0"/>
</linearGradient>
<linearGradient id="paint3_linear" x1="44" y1="93" x2="44.2202" y2="78.5033" gradientUnits="userSpaceOnUse">
<stop stop-color="#02D290"/>
<stop offset="1" stop-color="#02D290" stop-opacity="0"/>
</linearGradient>
<linearGradient id="paint4_linear" x1="80.6764" y1="25.2401" x2="78.2504" y2="49.4248" gradientUnits="userSpaceOnUse">
<stop offset="0.0174295" stop-color="#94FFDD"/>
<stop offset="1" stop-color="#00C788" stop-opacity="0"/>
</linearGradient>
<linearGradient id="paint5_linear" x1="80" y1="57" x2="80.2202" y2="42.5033" gradientUnits="userSpaceOnUse">
<stop stop-color="#02D290"/>
<stop offset="1" stop-color="#02D290" stop-opacity="0"/>
</linearGradient>
<linearGradient id="paint6_linear" x1="116.676" y1="61.2401" x2="114.25" y2="85.4248" gradientUnits="userSpaceOnUse">
<stop offset="0.0174295" stop-color="#94FFDD"/>
<stop offset="1" stop-color="#00C788" stop-opacity="0"/>
</linearGradient>
<linearGradient id="paint7_linear" x1="116" y1="93" x2="116.22" y2="78.5033" gradientUnits="userSpaceOnUse">
<stop stop-color="#02D290"/>
<stop offset="1" stop-color="#02D290" stop-opacity="0"/>
</linearGradient>
<linearGradient id="paint8_linear" x1="80.6764" y1="97.2401" x2="78.2504" y2="121.425" gradientUnits="userSpaceOnUse">
<stop offset="0.0174295" stop-color="#94FFDD"/>
<stop offset="1" stop-color="#00C788" stop-opacity="0"/>
</linearGradient>
<linearGradient id="paint9_linear" x1="80" y1="129" x2="80.2202" y2="114.503" gradientUnits="userSpaceOnUse">
<stop stop-color="#02D290"/>
<stop offset="1" stop-color="#02D290" stop-opacity="0"/>
</linearGradient>
</defs>
</svg>
