<svg width="154" height="36" viewBox="0 0 154 36" fill="none" xmlns="http://www.w3.org/2000/svg">
<path fill-rule="evenodd" clip-rule="evenodd" d="M16.5518 0.203586L30.8243 8.44379C31.2945 8.71524 31.5841 9.2169 31.5841 9.7598V26.2402C31.5841 26.7831 31.2945 27.2848 30.8243 27.5562L16.5518 35.7964C16.0817 36.0679 15.5024 36.0679 15.0322 35.7964L0.759795 27.5562C0.289632 27.2848 0 26.7831 0 26.2402V9.7598C0 9.2169 0.289632 8.71524 0.759795 8.44379L15.0322 0.203586C15.5024 -0.0678622 16.0817 -0.0678622 16.5518 0.203586Z" fill="#C6FF00"/>
<path fill-rule="evenodd" clip-rule="evenodd" d="M3.47656 10.2837L12.1341 15.2821L12.1187 15.3089L12.1382 15.3089V15.8207C12.1382 17.2526 11.3728 18.5752 10.1314 19.2887L8.94709 19.9693V15.5436L6.6677 14.2276V26.3778L3.47656 24.5419L3.47656 10.2837Z" fill="black"/>
<path fill-rule="evenodd" clip-rule="evenodd" d="M9.50756 8.29736L15.7835 11.9209V19.8854C15.7835 20.1782 15.7835 20.7646 15.7835 20.7646L12.1365 22.8631V25.8472L8.94531 27.6935V22.6028L8.94935 22.6028L8.94531 22.5958L13.2002 20.1393C13.6703 19.8678 13.96 19.3662 13.96 18.8233V13.6238L11.5076 12.2079C10.27 11.4933 9.50756 10.1728 9.50756 8.74377V8.29736Z" fill="black"/>
<path fill-rule="evenodd" clip-rule="evenodd" d="M28.0781 10.2837L19.4205 15.2821L19.436 15.3089L19.4165 15.3089V15.8207C19.4165 17.2526 20.1819 18.5752 21.4233 19.2887L22.6076 19.9693V15.5436L24.887 14.2276V26.3778L28.0781 24.5419L28.0781 10.2837Z" fill="black"/>
<path fill-rule="evenodd" clip-rule="evenodd" d="M22.0471 8.29736L15.7712 11.9209V19.8854C15.7712 20.1782 15.7712 20.7646 15.7712 20.7646L19.4182 22.8631V25.8472L22.6094 27.6935V22.6028L22.6053 22.6028L22.6094 22.5958L18.3545 20.1393C17.8844 19.8678 17.5947 19.3662 17.5947 18.8233V13.6238L20.0471 12.2079C21.2847 11.4933 22.0471 10.1728 22.0471 8.74377V8.29736Z" fill="black"/>
<path d="M38.04 29.758V13.3H41.55V15.328C42.8847 13.9067 44.67 13.1613 46.906 13.092C47.1313 13.092 47.3567 13.092 47.582 13.092C50.13 13.092 52.184 13.6553 53.744 14.782C55.304 15.8913 56.084 17.356 56.084 19.176C56.084 21.048 55.3127 22.53 53.77 23.622C52.2273 24.6967 50.182 25.234 47.634 25.234C47.3913 25.234 47.1487 25.2253 46.906 25.208C44.7047 25.1387 42.9453 24.4107 41.628 23.024V29.758H38.04ZM41.576 19.15C41.576 19.9473 41.8793 20.6147 42.486 21.152C43.0927 21.6893 43.8033 22.0707 44.618 22.296C45.45 22.504 46.3427 22.608 47.296 22.608C48.6827 22.608 49.8787 22.3047 50.884 21.698C51.9067 21.0913 52.418 20.2507 52.418 19.176C52.418 18.1013 51.9153 17.252 50.91 16.628C49.9047 16.004 48.7 15.692 47.296 15.692C46.5853 15.692 45.918 15.744 45.294 15.848C44.67 15.952 44.0633 16.1253 43.474 16.368C42.902 16.6107 42.4427 16.9747 42.096 17.46C41.7493 17.928 41.576 18.4913 41.576 19.15ZM57.1699 19.15C57.1699 17.434 57.9846 15.9867 59.6139 14.808C61.2606 13.6293 63.4706 13.04 66.2439 13.04C69.0172 13.04 71.2186 13.6293 72.8479 14.808C74.4772 15.9867 75.2919 17.434 75.2919 19.15C75.2919 20.8833 74.4772 22.3307 72.8479 23.492C71.2186 24.6707 69.0172 25.26 66.2439 25.26C63.4706 25.26 61.2606 24.6707 59.6139 23.492C57.9846 22.3133 57.1699 20.866 57.1699 19.15ZM62.2659 21.594C63.2366 22.3047 64.5626 22.66 66.2439 22.66C67.8906 22.66 69.1992 22.3133 70.1699 21.62C71.1579 20.9093 71.6519 20.086 71.6519 19.15C71.6519 18.1447 71.1666 17.3127 70.1959 16.654C69.2426 15.978 67.9252 15.64 66.2439 15.64C64.5279 15.64 63.1932 15.978 62.2399 16.654C61.2866 17.3127 60.8099 18.1447 60.8099 19.15C60.8099 20.086 61.2952 20.9007 62.2659 21.594ZM76.6561 8.282H80.1401V21.308C80.1401 21.6547 80.2008 21.8973 80.3221 22.036C80.4608 22.1573 80.7034 22.218 81.0501 22.218H83.1561V25H81.0501C79.3341 25 78.1728 24.766 77.5661 24.298C76.9594 23.8127 76.6561 22.816 76.6561 21.308V8.282ZM86.0403 13.3L90.9283 22.296L95.7123 13.3H99.5603L92.3583 26.04C92.2543 26.2307 92.0983 26.508 91.8903 26.872C91.6996 27.236 91.5609 27.4787 91.4743 27.6C91.4049 27.7387 91.2836 27.938 91.1103 28.198C90.9543 28.458 90.8243 28.6313 90.7203 28.718C90.6336 28.8047 90.4949 28.926 90.3043 29.082C90.1309 29.2553 89.9576 29.3593 89.7843 29.394C89.6283 29.446 89.4289 29.5067 89.1863 29.576C88.9436 29.6627 88.6836 29.7147 88.4063 29.732C88.1289 29.7493 87.8083 29.758 87.4443 29.758H82.9203V26.976H87.4443C87.8776 26.976 88.1723 26.9153 88.3283 26.794C88.5016 26.69 88.7009 26.4387 88.9263 26.04L89.3423 25.286L82.2183 13.3H86.0403ZM101.178 14.678C102.669 13.6207 104.68 13.092 107.21 13.092C107.436 13.092 107.661 13.092 107.886 13.092C110.122 13.1613 111.908 13.898 113.242 15.302V13.3H116.752V26.04C116.752 27.548 116.432 28.5447 115.79 29.03C115.166 29.5153 113.988 29.758 112.254 29.758H99.9044V27.054H112.254C112.601 27.054 112.835 26.9847 112.956 26.846C113.095 26.7073 113.164 26.456 113.164 26.092V23.05C111.864 24.4193 110.105 25.1387 107.886 25.208C107.644 25.2253 107.401 25.234 107.158 25.234C104.628 25.234 102.591 24.6967 101.048 23.622C99.5057 22.53 98.7344 21.048 98.7344 19.176C98.7344 17.356 99.549 15.8567 101.178 14.678ZM103.908 21.698C104.931 22.3047 106.136 22.608 107.522 22.608C108.476 22.608 109.36 22.504 110.174 22.296C111.006 22.0707 111.726 21.6893 112.332 21.152C112.939 20.6147 113.242 19.9473 113.242 19.15C113.242 18.4913 113.069 17.928 112.722 17.46C112.376 16.9747 111.908 16.6107 111.318 16.368C110.746 16.1253 110.148 15.952 109.524 15.848C108.9 15.744 108.233 15.692 107.522 15.692C106.118 15.692 104.905 16.004 103.882 16.628C102.877 17.252 102.374 18.1013 102.374 19.176C102.374 20.2507 102.886 21.0913 103.908 21.698ZM118.107 19.176C118.107 17.3733 118.844 15.9 120.317 14.756C121.808 13.612 123.819 13.04 126.349 13.04C127.996 13.04 129.461 13.2913 130.743 13.794C132.026 14.2793 133.005 15.0333 133.681 16.056C134.375 17.0613 134.721 18.1793 134.721 19.41C134.721 19.6527 134.704 19.9127 134.669 20.19H121.591C121.817 20.9353 122.354 21.5593 123.203 22.062C124.07 22.5473 125.145 22.79 126.427 22.79C127.173 22.79 127.831 22.7467 128.403 22.66C128.993 22.556 129.435 22.4433 129.729 22.322C130.041 22.1833 130.284 22.0533 130.457 21.932C130.648 21.7933 130.769 21.672 130.821 21.568L130.899 21.438H134.487C134.453 21.542 134.401 21.6807 134.331 21.854C134.262 22.0273 134.045 22.3307 133.681 22.764C133.317 23.1973 132.867 23.5873 132.329 23.934C131.809 24.2633 131.021 24.5667 129.963 24.844C128.923 25.1213 127.736 25.26 126.401 25.26C123.94 25.26 121.938 24.7053 120.395 23.596C118.87 22.4867 118.107 21.0133 118.107 19.176ZM131.289 17.928C131.255 17.2347 130.787 16.6627 129.885 16.212C128.984 15.744 127.814 15.51 126.375 15.51C125.058 15.51 123.983 15.744 123.151 16.212C122.337 16.68 121.825 17.252 121.617 17.928H131.289ZM139.373 13.3V15.718C140.586 13.95 142.536 13.0573 145.223 13.04C145.275 13.04 145.318 13.04 145.353 13.04C148.022 13.04 149.963 13.5687 151.177 14.626C152.39 15.6833 152.997 17.1307 152.997 18.968V25H149.409V18.968C149.409 16.6627 147.892 15.51 144.859 15.51C143.125 15.51 141.799 15.9087 140.881 16.706C139.979 17.5033 139.529 18.4913 139.529 19.67V25H135.941V13.3H139.373Z" fill="white"/>
</svg>
