<svg width="72" height="72" viewBox="0 0 72 72" fill="none" xmlns="http://www.w3.org/2000/svg">
<g filter="url(#filter0_d)">
<circle cx="36" cy="32" r="32" fill="url(#paint0_linear)"/>
<circle cx="36" cy="32" r="31.5" stroke="url(#paint1_linear)" stroke-opacity="0.24"/>
<path fill-rule="evenodd" clip-rule="evenodd" d="M34.1499 32L39.1583 26.9916C39.6139 26.536 39.6139 25.7973 39.1583 25.3417C38.7027 24.8861 37.964 24.8861 37.5084 25.3417L31.675 31.175C31.2194 31.6307 31.2194 32.3693 31.675 32.825L37.5084 38.6583C37.964 39.1139 38.7027 39.1139 39.1583 38.6583C39.6139 38.2027 39.6139 37.464 39.1583 37.0084L34.1499 32Z" fill="#C6FF00"/>
</g>
<defs>
<filter id="filter0_d" x="0" y="0" width="72" height="72" filterUnits="userSpaceOnUse" color-interpolation-filters="sRGB">
<feFlood flood-opacity="0" result="BackgroundImageFix"/>
<feColorMatrix in="SourceAlpha" type="matrix" values="0 0 0 0 0 0 0 0 0 0 0 0 0 0 0 0 0 0 127 0"/>
<feOffset dy="4"/>
<feGaussianBlur stdDeviation="2"/>
<feColorMatrix type="matrix" values="0 0 0 0 0 0 0 0 0 0 0 0 0 0 0 0 0 0 0.25 0"/>
<feBlend mode="normal" in2="BackgroundImageFix" result="effect1_dropShadow"/>
<feBlend mode="normal" in="SourceGraphic" in2="effect1_dropShadow" result="shape"/>
</filter>
<linearGradient id="paint0_linear" x1="36" y1="0" x2="36" y2="64" gradientUnits="userSpaceOnUse">
<stop offset="0.0001" stop-color="#2D2D2D"/>
<stop offset="1" stop-color="#050505"/>
</linearGradient>
<linearGradient id="paint1_linear" x1="36" y1="0" x2="36" y2="64" gradientUnits="userSpaceOnUse">
<stop stop-color="white"/>
<stop offset="1" stop-color="white" stop-opacity="0.4"/>
</linearGradient>
</defs>
</svg>
