<svg width="160" height="160" viewBox="0 0 160 160" fill="none" xmlns="http://www.w3.org/2000/svg">
<path d="M0 24C0 10.7452 10.7452 0 24 0H136C149.255 0 160 10.7452 160 24V136C160 149.255 149.255 160 136 160H24C10.7452 160 0 149.255 0 136V24Z" fill="url(#paint0_linear)"/>
<path d="M0.5 24C0.5 11.0213 11.0213 0.5 24 0.5H136C148.979 0.5 159.5 11.0213 159.5 24V136C159.5 148.979 148.979 159.5 136 159.5H24C11.0213 159.5 0.5 148.979 0.5 136V24Z" stroke="url(#paint1_linear)" stroke-opacity="0.24"/>
<path d="M106.461 42.8663C130.02 59.9824 136.337 91.306 120.713 112.81C105.089 134.314 73.3469 137.986 49.7886 120.87C26.2303 103.754 19.9132 72.4301 35.5369 50.9259C51.1606 29.4218 82.9032 25.7502 106.461 42.8663Z" fill="#5A58FF"/>
<path d="M106.461 42.8663C130.02 59.9824 136.337 91.306 120.713 112.81C105.089 134.314 73.3469 137.986 49.7886 120.87C26.2303 103.754 19.9132 72.4301 35.5369 50.9259C51.1606 29.4218 82.9032 25.7502 106.461 42.8663Z" fill="url(#paint2_linear)" fill-opacity="0.72"/>
<path d="M106.461 42.8663C130.02 59.9824 136.337 91.306 120.713 112.81C105.089 134.314 73.3469 137.986 49.7886 120.87C26.2303 103.754 19.9132 72.4301 35.5369 50.9259C51.1606 29.4218 82.9032 25.7502 106.461 42.8663Z" stroke="black" stroke-width="1.10825"/>
<path d="M113.886 31.5205C137.444 48.6366 143.761 79.9601 128.137 101.464C112.513 122.968 80.7708 126.64 57.2124 109.524C33.6541 92.4079 27.337 61.0844 42.9607 39.5802C58.5845 18.0761 90.3272 14.4045 113.886 31.5205Z" fill="#6E6CFD" stroke="black" stroke-width="1.10825"/>
<path d="M57.3063 50.0027C67.1603 36.4397 87.8066 34.4911 103.463 45.8659C119.119 57.2408 123.646 77.4789 113.792 91.0419C103.938 104.605 83.2912 106.554 67.6352 95.1787C51.9791 83.8038 47.4523 63.5657 57.3063 50.0027Z" fill="#5351FF"/>
<path d="M57.3063 50.0027C67.1603 36.4397 87.8066 34.4911 103.463 45.8659C119.119 57.2408 123.646 77.4789 113.792 91.0419C103.938 104.605 83.2912 106.554 67.6352 95.1787C51.9791 83.8038 47.4523 63.5657 57.3063 50.0027Z" fill="#A6A5FF"/>
<path d="M57.3063 50.0027C67.1603 36.4397 87.8066 34.4911 103.463 45.8659C119.119 57.2408 123.646 77.4789 113.792 91.0419C103.938 104.605 83.2912 106.554 67.6352 95.1787C51.9791 83.8038 47.4523 63.5657 57.3063 50.0027Z" stroke="black" stroke-width="1.10825"/>
<path d="M70.2227 65.3434L85.6004 67.1679M85.6004 67.1679L102.916 69.2223L80.751 81.413L85.6004 67.1679ZM85.6004 67.1679L89.617 55.3691" stroke="black" stroke-width="2.2165" stroke-linecap="round" stroke-linejoin="round"/>
<defs>
<linearGradient id="paint0_linear" x1="80" y1="0" x2="80" y2="160" gradientUnits="userSpaceOnUse">
<stop stop-color="#2D2D2D"/>
<stop offset="1" stop-color="#050505"/>
</linearGradient>
<linearGradient id="paint1_linear" x1="80" y1="0" x2="80" y2="160" gradientUnits="userSpaceOnUse">
<stop stop-color="white"/>
<stop offset="1" stop-color="white" stop-opacity="0.4"/>
</linearGradient>
<linearGradient id="paint2_linear" x1="31.6622" y1="67.8852" x2="110.902" y2="120.527" gradientUnits="userSpaceOnUse">
<stop stop-color="#4946FF"/>
<stop offset="0.4375" stop-color="#6E6CFD"/>
<stop offset="1" stop-color="#4946FF"/>
</linearGradient>
</defs>
</svg>
