<svg width="136" height="65" viewBox="0 0 136 65" fill="none" xmlns="http://www.w3.org/2000/svg">
<path d="M64.9186 12.562C60.9167 12.562 56.9148 12.562 52.6844 12.562C52.6844 20.7543 52.6844 28.8805 52.6844 37.0908C48.5743 37.0908 44.6896 37.0908 40.6546 37.0908C40.6546 28.9617 40.6546 20.8686 40.6546 12.5951C36.5836 12.5951 32.6598 12.5951 28.6309 12.5951C28.6309 8.38923 28.6309 4.36674 28.6309 0.248047C40.6636 0.248047 52.6573 0.248047 64.8705 0.248047C64.8705 4.42386 64.8705 8.51851 64.8705 12.6101L64.9186 12.562Z" fill="#CFCFCF"/>
<path d="M76.9573 12.6677C76.9573 16.666 76.9573 20.6673 76.9573 24.8489C85.0032 24.8489 92.992 24.8489 101.074 24.8489C101.074 29.0096 101.074 32.9868 101.074 37.0723C89.0202 37.0723 77.0325 37.0723 64.9215 37.0723C64.9215 28.8623 64.9215 20.7124 64.9215 12.5625L64.8734 12.6136C68.9144 12.6497 72.9524 12.6827 76.9934 12.7188C76.9934 12.7158 76.9573 12.6677 76.9573 12.6677Z" fill="#CFCFCF"/>
<path d="M76.9909 12.7153C76.9909 8.61471 76.9909 4.51708 76.9909 0.28418C85.0218 0.28418 92.9955 0.28418 101.068 0.28418C101.068 4.30965 101.068 8.29303 101.068 12.4478C100.518 12.4748 99.9921 12.5229 99.4659 12.5229C92.5024 12.5289 85.5389 12.5229 78.5754 12.5319C78.0342 12.5319 77.49 12.6161 76.9488 12.6642C76.9548 12.6672 76.9909 12.7153 76.9909 12.7153Z" fill="#CFCFCF"/>
<path d="M68.8217 52.1867C67.4628 52.734 66.1699 53.2553 64.7803 53.8144C64.5491 53.3827 64.3486 52.9769 64.1174 52.5854C63.1289 50.9082 60.897 50.8067 60.0005 52.5122C58.8421 54.7202 58.8587 57.0744 60.0147 59.2847C60.7814 60.7543 62.7868 60.8982 63.9452 59.6904C64.3486 59.2705 64.6624 58.7681 65.0965 58.1949C66.328 58.8483 67.5548 59.497 68.7698 60.1433C67.7766 62.9127 65.0611 64.5781 61.8313 64.4696C57.9197 64.3375 55.2703 62.0564 54.6238 58.1807C54.0552 54.7744 54.3808 51.5521 57.1128 49.0682C60.9136 45.6077 67.0122 47.1693 68.8217 52.1867Z" fill="#CFCFCF"/>
<path d="M128.828 64.175C127.297 64.175 125.98 64.175 124.596 64.175C124.572 63.748 124.534 63.4012 124.534 63.0568C124.53 58.5772 124.548 54.0976 124.513 49.618C124.508 48.8726 124.718 48.4833 125.44 48.2451C126.514 47.8912 127.552 47.4265 128.797 46.9312C128.797 48.79 128.797 50.5215 128.797 52.1703C129.96 51.9061 130.968 51.5264 131.989 51.4745C133.967 51.3754 135.472 52.5265 135.729 54.4845C135.984 56.4188 135.934 58.3979 135.984 60.3559C136.017 61.6037 135.991 62.8563 135.991 64.1797C134.561 64.1797 133.242 64.1797 131.746 64.1797C131.746 62.2241 131.754 60.2733 131.742 58.3224C131.737 57.6572 131.732 56.9849 131.65 56.3244C131.548 55.5153 131.058 55.0341 130.213 55.0766C129.382 55.1167 128.904 55.6026 128.889 56.4377C128.852 58.4805 128.845 60.5257 128.828 62.5685C128.823 63.0781 128.828 63.5805 128.828 64.175Z" fill="#CFCFCF"/>
<path d="M44.4491 46.9478C44.4491 48.7901 44.4491 50.505 44.4491 52.3285C45.23 52.0548 45.8953 51.76 46.5889 51.5925C49.0001 51.0098 51.1965 52.1893 51.4065 54.6049C51.6802 57.747 51.4725 60.9315 51.4725 64.1821C50.2481 64.1821 48.9316 64.1821 47.4713 64.1821C47.4453 63.7198 47.4005 63.2692 47.3958 62.8187C47.384 60.8938 47.4076 58.9689 47.3698 57.044C47.3439 55.6239 46.8697 55.0389 45.8977 55.0766C44.9469 55.1144 44.4963 55.7395 44.4821 57.136C44.4632 59.0609 44.4774 60.9858 44.4774 62.9107C44.4774 63.2975 44.4774 63.6844 44.4774 64.168C43.043 64.168 41.7006 64.168 40.2945 64.168C40.2685 63.833 40.226 63.5287 40.226 63.2244C40.2213 58.6669 40.2378 54.1095 40.2072 49.5544C40.2024 48.8656 40.3841 48.4929 41.0659 48.2664C42.1748 47.8937 43.2482 47.4195 44.4491 46.9478Z" fill="#CFCFCF"/>
<path d="M9.18453 51.586C9.18453 55.8911 9.18453 59.9649 9.18453 64.1143C7.6581 64.1143 6.22368 64.1143 4.67366 64.1143C4.67366 60.0192 4.67366 55.9147 4.67366 51.645C3.06466 51.645 1.56418 51.645 0 51.645C0 50.2415 0 49.0054 0 47.6655C4.5958 47.6655 9.15622 47.6655 13.7921 47.6655C13.7921 48.9535 13.7921 50.1919 13.7921 51.5837C12.2964 51.586 10.8289 51.586 9.18453 51.586Z" fill="#CFCFCF"/>
<path d="M97.3151 51.636C98.8321 51.9143 100.344 51.2373 101.826 52.1762C102.423 51.9945 103.223 51.6313 104.058 51.518C106.632 51.1689 108.434 52.7116 108.573 55.566C108.713 58.3802 108.604 61.2038 108.604 64.1077C107.196 64.1077 105.851 64.1077 104.364 64.1077C104.364 62.4776 104.364 60.883 104.364 59.286C104.364 58.5783 104.372 57.873 104.362 57.1653C104.346 55.6745 103.904 55.0234 102.921 55.0234C101.916 55.0234 101.505 55.6273 101.503 57.1535C101.496 59.4582 101.5 61.7629 101.5 64.1289C100.045 64.1289 98.7259 64.1289 97.3127 64.1289C97.3151 60.0055 97.3151 55.9127 97.3151 51.636Z" fill="#CFCFCF"/>
<path d="M82.7464 51.772C84.0889 51.772 85.377 51.772 86.8751 51.772C86.8751 52.7391 86.8728 53.7016 86.8751 54.6617C86.8822 56.1148 86.8633 57.5702 86.9105 59.021C86.9577 60.408 87.3658 60.901 88.3473 60.8727C89.6189 60.835 89.7345 59.8843 89.751 58.9596C89.7911 56.8791 89.7675 54.7961 89.7723 52.7132C89.7723 52.482 89.7723 52.2508 89.7723 51.9159C91.1831 51.9159 92.5255 51.9159 93.9505 51.9159C93.9505 55.9897 93.9505 60.0495 93.9505 64.2389C92.4547 64.0974 90.9472 64.6423 89.3335 63.8073C88.8545 63.9535 88.0901 64.3026 87.2927 64.4017C84.7778 64.7154 82.9942 63.5454 82.8007 61.0567C82.5671 58.0184 82.7464 54.9495 82.7464 51.772Z" fill="#CFCFCF"/>
<path d="M22.7533 60.4599C23.2393 61.2761 23.7347 62.1089 24.3009 63.0595C21.8284 64.4631 19.3253 65.0387 16.7254 63.9512C14.3378 62.9534 13.5569 60.8209 13.4791 58.3982C13.4531 57.5796 13.4909 56.7375 13.6655 55.9402C14.3119 52.9914 16.4895 51.3331 19.4244 51.4676C22.3215 51.5997 24.1782 53.4113 24.5817 56.5912C24.6831 57.398 24.5958 58.226 24.5958 59.1554C22.2083 59.1554 19.8278 59.1554 17.4402 59.1554C17.6125 61.3799 18.8652 61.6725 22.7533 60.4599ZM20.8305 56.5323C20.6724 55.131 20.2265 54.6616 19.1318 54.6545C18.0607 54.6498 17.6148 55.1452 17.4945 56.5323C18.5821 56.5323 19.6674 56.5323 20.8305 56.5323Z" fill="#CFCFCF"/>
<path d="M121.937 61.4317C120.562 63.9015 118.365 64.8923 115.636 64.3332C113.187 63.8307 111.469 61.9908 111.304 59.2757C111.212 57.7825 111.351 56.1832 111.811 54.7726C112.533 52.5575 114.402 51.6305 116.662 51.489C118.943 51.3474 120.689 52.2131 121.89 54.3149C120.96 55.025 120.064 55.709 119.113 56.4379C118.938 56.2469 118.766 56.1006 118.648 55.9166C118.214 55.2373 117.596 54.6428 116.825 55.0061C116.287 55.2608 115.754 55.9496 115.619 56.5347C115.411 57.4263 115.385 58.4383 115.6 59.3205C115.749 59.9362 116.35 60.75 116.893 60.8798C117.443 61.0119 118.186 60.4457 118.809 60.1226C119.028 60.0093 119.148 59.705 119.377 59.4054C120.257 60.1013 121.102 60.7712 121.937 61.4317Z" fill="#CFCFCF"/>
<path d="M37.6483 61.4202C36.3602 63.7673 34.4279 64.7132 31.7124 64.3829C29.4499 64.107 27.7088 62.6799 27.2488 60.3281C26.968 58.8986 26.9185 57.3465 27.1568 55.9146C27.5838 53.3505 29.2022 51.9659 31.7384 51.5507C34.2274 51.1427 36.1502 52.0201 37.6035 54.3153C36.6952 55.0065 35.7751 55.7047 34.8856 56.3817C34.7393 56.318 34.6426 56.3062 34.6096 56.2567C34.0953 55.4971 33.5857 54.6762 32.4768 54.9711C31.3326 55.2754 31.2335 56.2897 31.1722 57.2285C31.1226 57.9645 31.0825 58.7547 31.3019 59.4364C31.4812 59.9978 31.972 60.7361 32.4556 60.8517C33.0053 60.9838 33.7272 60.5663 34.3241 60.2856C34.6143 60.1488 34.7913 59.7785 35.1027 59.4152C35.9685 60.1016 36.8131 60.7645 37.6483 61.4202Z" fill="#CFCFCF"/>
<path d="M71.6439 51.6733C73.1704 52.0011 74.7227 51.1873 76.2067 52.3054C77.4028 51.3855 78.8774 51.1048 80.5218 52.0412C80.2009 53.4377 79.8871 54.8035 79.5521 56.2566C79.3138 56.108 79.1416 55.9263 78.9434 55.8933C78.172 55.7636 77.2731 55.4097 76.6526 55.6763C76.1926 55.8744 75.8929 56.8935 75.8623 57.561C75.7655 59.71 75.8269 61.866 75.8269 64.1069C74.4066 64.1069 73.0618 64.1069 71.6416 64.1069C71.6439 60.0143 71.6439 55.9499 71.6439 51.6733Z" fill="#CFCFCF"/>
</svg>
